Oxygen-LightFF.ufo
<glyph name="numbersign" format="1">
  <advance width="1108"/>
  <unicode hex="0023"/>
  <outline>
    <contour>
      <point x="180" y="-1" type="line" smooth="no"/>
      <point x="254" y="438" type="line" smooth="no"/>
      <point x="109" y="438" type="line" smooth="no"/>
      <point x="119" y="529" type="line" smooth="no"/>
      <point x="270" y="529" type="line" smooth="no"/>
      <point x="348" y="975" type="line" smooth="no"/>
      <point x="185" y="975" type="line" smooth="no"/>
      <point x="195" y="1065" type="line" smooth="no"/>
      <point x="363" y="1065" type="line" smooth="no"/>
      <point x="437" y="1488" type="line" smooth="no"/>
      <point x="541" y="1488" type="line" smooth="no"/>
      <point x="467" y="1065" type="line" smooth="no"/>
      <point x="737" y="1065" type="line" smooth="no"/>
      <point x="811" y="1488" type="line" smooth="no"/>
      <point x="915" y="1488" type="line" smooth="no"/>
      <point x="841" y="1065" type="line" smooth="no"/>
      <point x="984" y="1065" type="line" smooth="no"/>
      <point x="969" y="976" type="line" smooth="no"/>
      <point x="826" y="976" type="line" smooth="no"/>
      <point x="747" y="529" type="line" smooth="no"/>
      <point x="902" y="529" type="line" smooth="no"/>
      <point x="892" y="438" type="line" smooth="no"/>
      <point x="732" y="438" type="line" smooth="no"/>
      <point x="655" y="-1" type="line" smooth="no"/>
      <point x="550" y="-1" type="line" smooth="no"/>
      <point x="628" y="438" type="line" smooth="no"/>
      <point x="358" y="438" type="line" smooth="no"/>
      <point x="281" y="-1" type="line" smooth="no"/>
    </contour>
    <contour>
      <point x="374" y="529" type="line" smooth="no"/>
      <point x="644" y="529" type="line" smooth="no"/>
      <point x="721" y="976" type="line" smooth="no"/>
      <point x="452" y="976" type="line" smooth="no"/>
    </contour>
  </outline>
</glyph>
<glyph name="dollar" format="1">
  <advance width="1247"/>
  <unicode hex="0024"/>
  <outline>
    <contour>
      <point x="679" y="-23" type="curve" smooth="no"/>
      <point x="679" y="-213" type="line" smooth="no"/>
      <point x="592" y="-213" type="line" smooth="no"/>
      <point x="592" y="-22" type="line" smooth="no"/>
      <point x="344" y="-11"/>
      <point x="172" y="62"/>
      <point x="99" y="105" type="curve" smooth="no"/>
      <point x="147" y="196" type="line" smooth="no"/>
      <point x="271" y="129"/>
      <point x="418" y="92"/>
      <point x="592" y="84" type="curve" smooth="no"/>
      <point x="592" y="737" type="line" smooth="no"/>
      <point x="499" y="756" type="line" smooth="yes"/>
      <point x="246" y="807"/>
      <point x="97" y="905"/>
      <point x="97" y="1127" type="curve" smooth="yes"/>
      <point x="97" y="1389"/>
      <point x="296" y="1500"/>
      <point x="592" y="1513" type="curve" smooth="no"/>
      <point x="592" y="1741" type="line" smooth="no"/>
      <point x="679" y="1741" type="line" smooth="no"/>
      <point x="679" y="1514" type="line" smooth="no"/>
      <point x="855" y="1509"/>
      <point x="1017" y="1454"/>
      <point x="1098" y="1413" type="curve" smooth="no"/>
      <point x="1065" y="1315" type="line" smooth="no"/>
      <point x="1006" y="1347"/>
      <point x="853" y="1402"/>
      <point x="679" y="1407" type="curve" smooth="no"/>
      <point x="679" y="838" type="line" smooth="no"/>
      <point x="761" y="821" type="line" smooth="no"/>
      <point x="1013" y="768"/>
      <point x="1159" y="674"/>
      <point x="1159" y="419" type="curve" smooth="yes"/>
      <point x="1159" y="140"/>
      <point x="962" y="-16"/>
    </contour>
    <contour>
      <point x="592" y="856" type="line" smooth="no"/>
      <point x="592" y="1406" type="line" smooth="no"/>
      <point x="354" y="1394"/>
      <point x="228" y="1305"/>
      <point x="228" y="1114" type="curve" smooth="yes"/>
      <point x="228" y="983"/>
      <point x="324" y="912"/>
      <point x="493" y="876" type="curve" smooth="no"/>
    </contour>
    <contour>
      <point x="679" y="720" type="line" smooth="no"/>
      <point x="679" y="82" type="line" smooth="no"/>
      <point x="902" y="86"/>
      <point x="1025" y="209"/>
      <point x="1025" y="422" type="curve" smooth="yes"/>
      <point x="1025" y="570"/>
      <point x="981" y="659"/>
      <point x="739" y="708" type="curve" smooth="yes"/>
    </contour>
  </outline>
</glyph>
<glyph name="percent" format="1">
  <advance width="1748"/>
  <unicode hex="0025"/>
  <outline>
    <contour>
      <point x="393" y="719" type="curve" smooth="yes"/>
      <point x="619" y="719"/>
      <point x="734" y="887"/>
      <point x="734" y="1103" type="curve" smooth="yes"/>
      <point x="734" y="1324"/>
      <point x="622" y="1488"/>
      <point x="393" y="1488" type="curve" smooth="yes"/>
      <point x="161" y="1488"/>
      <point x="50" y="1324"/>
      <point x="50" y="1103" type="curve" smooth="yes"/>
      <point x="50" y="887"/>
      <point x="164" y="719"/>
    </contour>
    <contour>
      <point x="393" y="1404" type="curve" smooth="yes"/>
      <point x="583" y="1404"/>
      <point x="627" y="1249"/>
      <point x="627" y="1103" type="curve" smooth="yes"/>
      <point x="627" y="962"/>
      <point x="575" y="802"/>
      <point x="393" y="802" type="curve" smooth="yes"/>
      <point x="208" y="802"/>
      <point x="157" y="962"/>
      <point x="157" y="1103" type="curve" smooth="yes"/>
      <point x="157" y="1249"/>
      <point x="200" y="1404"/>
    </contour>
    <contour>
      <point x="1359" y="0" type="curve" smooth="yes"/>
      <point x="1585" y="0"/>
      <point x="1700" y="168"/>
      <point x="1700" y="384" type="curve" smooth="yes"/>
      <point x="1700" y="605"/>
      <point x="1588" y="769"/>
      <point x="1359" y="769" type="curve" smooth="yes"/>
      <point x="1127" y="769"/>
      <point x="1016" y="605"/>
      <point x="1016" y="384" type="curve" smooth="yes"/>
      <point x="1016" y="168"/>
      <point x="1130" y="0"/>
    </contour>
    <contour>
      <point x="1359" y="685" type="curve" smooth="yes"/>
      <point x="1549" y="685"/>
      <point x="1593" y="530"/>
      <point x="1593" y="384" type="curve" smooth="yes"/>
      <point x="1593" y="243"/>
      <point x="1541" y="83"/>
      <point x="1359" y="83" type="curve" smooth="yes"/>
      <point x="1174" y="83"/>
      <point x="1123" y="243"/>
      <point x="1123" y="384" type="curve" smooth="yes"/>
      <point x="1123" y="530"/>
      <point x="1166" y="685"/>
    </contour>
    <contour>
      <point x="404" y="0" type="line" smooth="no"/>
      <point x="1219" y="1488" type="line" smooth="no"/>
      <point x="1346" y="1488" type="line" smooth="no"/>
      <point x="524" y="0" type="line" smooth="no"/>
    </contour>
  </outline>
</glyph>
<glyph name="ampersand" format="1">
  <advance width="1496"/>
  <unicode hex="0026"/>
  <outline>
    <contour>
      <point x="638" y="-22" type="curve" smooth="yes"/>
      <point x="271" y="-22"/>
      <point x="141" y="160"/>
      <point x="141" y="380" type="curve" smooth="yes"/>
      <point x="141" y="607"/>
      <point x="273" y="737"/>
      <point x="487" y="849" type="curve" smooth="no"/>
      <point x="374" y="986"/>
      <point x="302" y="1073"/>
      <point x="302" y="1213" type="curve" smooth="yes"/>
      <point x="302" y="1384"/>
      <point x="432" y="1514"/>
      <point x="678" y="1514" type="curve" smooth="yes"/>
      <point x="873" y="1514"/>
      <point x="1027" y="1404"/>
      <point x="1027" y="1205" type="curve" smooth="yes"/>
      <point x="1027" y="1034"/>
      <point x="872" y="920"/>
      <point x="659" y="821" type="curve" smooth="no"/>
      <point x="1168" y="288" type="line" smooth="no"/>
      <point x="1215" y="339"/>
      <point x="1255" y="402"/>
      <point x="1284" y="471" type="curve" smooth="no"/>
      <point x="1356" y="414" type="line" smooth="no"/>
      <point x="1325" y="340"/>
      <point x="1285" y="279"/>
      <point x="1235" y="216" type="curve" smooth="no"/>
      <point x="1390" y="62" type="line" smooth="no"/>
      <point x="1315" y="-6" type="line" smooth="no"/>
      <point x="1161" y="147" type="line" smooth="no"/>
      <point x="1032" y="51"/>
      <point x="872" y="-22"/>
    </contour>
    <contour>
      <point x="626" y="74" type="curve" smooth="yes"/>
      <point x="800" y="74"/>
      <point x="988" y="130"/>
      <point x="1089" y="219" type="curve" smooth="no"/>
      <point x="564" y="773" type="line" smooth="no"/>
      <point x="393" y="679"/>
      <point x="262" y="554"/>
      <point x="262" y="376" type="curve" smooth="yes"/>
      <point x="262" y="161"/>
      <point x="435" y="74"/>
    </contour>
    <contour>
      <point x="601" y="891" type="curve" smooth="no"/>
      <point x="766" y="975"/>
      <point x="919" y="1053"/>
      <point x="919" y="1217" type="curve" smooth="yes"/>
      <point x="919" y="1347"/>
      <point x="812" y="1414"/>
      <point x="690" y="1414" type="curve" smooth="yes"/>
      <point x="483" y="1414"/>
      <point x="413" y="1327"/>
      <point x="413" y="1214" type="curve" smooth="yes"/>
      <point x="413" y="1105"/>
      <point x="517" y="966"/>
    </contour>
  </outline>
</glyph>
<glyph name="six" format="1">
  <advance width="1196"/>
  <unicode hex="0036"/>
  <outline>
    <contour>
      <point x="604" y="-24" type="curve" smooth="yes"/>
      <point x="297" y="-24"/>
      <point x="121" y="219"/>
      <point x="121" y="473" type="curve" smooth="yes"/>
      <point x="121" y="673"/>
      <point x="179" y="762"/>
      <point x="423" y="1081" type="curve" smooth="yes"/>
      <point x="534" y="1227"/>
      <point x="775" y="1488"/>
      <point x="775" y="1488" type="curve" smooth="no"/>
      <point x="912" y="1488" type="line" smooth="no"/>
      <point x="387" y="849" type="line" smooth="no"/>
      <point x="466" y="894"/>
      <point x="541" y="916"/>
      <point x="646" y="916" type="curve" smooth="yes"/>
      <point x="877" y="916"/>
      <point x="1084" y="713"/>
      <point x="1084" y="444" type="curve" smooth="yes"/>
      <point x="1084" y="192"/>
      <point x="887" y="-24"/>
    </contour>
    <contour>
      <point x="602" y="83" type="curve" smooth="yes"/>
      <point x="819" y="83"/>
      <point x="955" y="264"/>
      <point x="955" y="443" type="curve" smooth="yes"/>
      <point x="955" y="637"/>
      <point x="829" y="813"/>
      <point x="607" y="813" type="curve" smooth="yes"/>
      <point x="372" y="813"/>
      <point x="253" y="643"/>
      <point x="253" y="448" type="curve" smooth="yes"/>
      <point x="253" y="269"/>
      <point x="384" y="83"/>
    </contour>
  </outline>
</glyph>
<glyph name="equal" format="1">
  <advance width="1070"/>
  <unicode hex="003d"/>
  <outline>
    <contour>
      <point x="121" y="392" type="line" smooth="no"/>
      <point x="121" y="502" type="line" smooth="no"/>
      <point x="949" y="502" type="line" smooth="no"/>
      <point x="949" y="392" type="line" smooth="no"/>
    </contour>
    <contour>
      <point x="120" y="831" type="line" smooth="no"/>
      <point x="120" y="943" type="line" smooth="no"/>
      <point x="950" y="943" type="line" smooth="no"/>
      <point x="950" y="831" type="line" smooth="no"/>
    </contour>
  </outline>
</glyph>
<glyph name="C" format="1">
  <advance width="1286"/>
  <unicode hex="0043"/>
  <outline>
    <contour>
      <point x="813" y="-24" type="curve" smooth="yes"/>
      <point x="345" y="-24"/>
      <point x="118" y="308"/>
      <point x="118" y="749" type="curve" smooth="yes"/>
      <point x="118" y="1189"/>
      <point x="373" y="1514"/>
      <point x="826" y="1514" type="curve" smooth="yes"/>
      <point x="1011" y="1514"/>
      <point x="1141" y="1471"/>
      <point x="1240" y="1412" type="curve" smooth="no"/>
      <point x="1179" y="1313" type="line" smooth="no"/>
      <point x="1081" y="1372"/>
      <point x="955" y="1407"/>
      <point x="827" y="1407" type="curve" smooth="yes"/>
      <point x="452" y="1407"/>
      <point x="260" y="1112"/>
      <point x="260" y="742" type="curve" smooth="yes"/>
      <point x="260" y="387"/>
      <point x="430" y="83"/>
      <point x="832" y="83" type="curve" smooth="yes"/>
      <point x="961" y="83"/>
      <point x="1080" y="124"/>
      <point x="1182" y="170" type="curve" smooth="no"/>
      <point x="1208" y="67" type="line" smooth="no"/>
      <point x="1120" y="12"/>
      <point x="992" y="-24"/>
    </contour>
  </outline>
</glyph>
<glyph name="c" format="1">
  <advance width="965"/>
  <unicode hex="0063"/>
  <outline>
    <contour>
      <point x="604" y="-24" type="curve" smooth="yes"/>
      <point x="275" y="-24"/>
      <point x="97" y="235"/>
      <point x="97" y="537" type="curve" smooth="yes"/>
      <point x="98" y="849"/>
      <point x="275" y="1116"/>
      <point x="608" y="1116" type="curve" smooth="yes"/>
      <point x="715" y="1116"/>
      <point x="832" y="1068"/>
      <point x="882" y="1041" type="curve" smooth="no"/>
      <point x="843" y="952" type="line" smooth="no"/>
      <point x="763" y="997"/>
      <point x="671" y="1016"/>
      <point x="604" y="1016" type="curve" smooth="yes"/>
      <point x="374" y="1016"/>
      <point x="228" y="819"/>
      <point x="228" y="537" type="curve" smooth="yes"/>
      <point x="228" y="269"/>
      <point x="373" y="75"/>
      <point x="606" y="75" type="curve" smooth="yes"/>
      <point x="696" y="75"/>
      <point x="779" y="105"/>
      <point x="857" y="139" type="curve" smooth="no"/>
      <point x="876" y="50" type="line" smooth="no"/>
      <point x="811" y="2"/>
      <point x="701" y="-24"/>
    </contour>
  </outline>
</glyph>
<glyph name="h" format="1">
  <advance width="1149"/>
  <unicode hex="0068"/>
  <outline>
    <contour>
      <point x="147" y="0" type="line" smooth="no"/>
      <point x="147" y="1521" type="line" smooth="no"/>
      <point x="271" y="1532" type="line" smooth="no"/>
      <point x="271" y="1009" type="line" smooth="yes"/>
      <point x="271" y="949"/>
      <point x="270" y="993"/>
      <point x="268" y="930" type="curve" smooth="no"/>
      <point x="360" y="1058"/>
      <point x="491" y="1116"/>
      <point x="652" y="1116" type="curve" smooth="yes"/>
      <point x="904" y="1116"/>
      <point x="1009" y="956"/>
      <point x="1009" y="685" type="curve" smooth="yes"/>
      <point x="1009" y="0" type="line" smooth="no"/>
      <point x="886" y="0" type="line" smooth="no"/>
      <point x="886" y="661" type="line" smooth="yes"/>
      <point x="886" y="899"/>
      <point x="826" y="1015"/>
      <point x="628" y="1015" type="curve" smooth="yes"/>
      <point x="433" y="1015"/>
      <point x="301" y="896"/>
      <point x="273" y="741" type="curve" smooth="no"/>
      <point x="271" y="701"/>
      <point x="271" y="660"/>
      <point x="271" y="622" type="curve" smooth="yes"/>
      <point x="271" y="0" type="line" smooth="no"/>
    </contour>
  </outline>
</glyph>
<glyph name="j" format="1">
  <advance width="408"/>
  <unicode hex="006a"/>
  <outline>
    <contour>
      <point x="-58" y="-550" type="line" smooth="no"/>
      <point x="-77" y="-450" type="line" smooth="no"/>
      <point x="-28" y="-450" type="line" smooth="yes"/>
      <point x="162" y="-450"/>
      <point x="161" y="-384"/>
      <point x="161" y="-219" type="curve" smooth="yes"/>
      <point x="161" y="1096" type="line" smooth="no"/>
      <point x="286" y="1096" type="line" smooth="no"/>
      <point x="286" y="-247" type="line" smooth="yes"/>
      <point x="286" y="-488"/>
      <point x="228" y="-550"/>
      <point x="-9" y="-550" type="curve" smooth="yes"/>
    </contour>
    <contour>
      <point x="161" y="1321" type="line" smooth="no"/>
      <point x="161" y="1488" type="line" smooth="no"/>
      <point x="286" y="1488" type="line" smooth="no"/>
      <point x="286" y="1321" type="line" smooth="no"/>
    </contour>
  </outline>
</glyph>
<glyph name="s" format="1">
  <advance width="950"/>
  <unicode hex="0073"/>
  <outline>
    <contour>
      <point x="470" y="-24" type="curve" smooth="yes"/>
      <point x="318" y="-24"/>
      <point x="188" y="20"/>
      <point x="124" y="63" type="curve" smooth="no"/>
      <point x="142" y="167" type="line" smooth="no"/>
      <point x="211" y="131"/>
      <point x="322" y="75"/>
      <point x="458" y="75" type="curve" smooth="yes"/>
      <point x="629" y="75"/>
      <point x="739" y="142.824"/>
      <point x="739" y="282" type="curve" smooth="yes"/>
      <point x="739" y="390"/>
      <point x="699.749" y="461.211"/>
      <point x="471" y="519" type="curve" smooth="yes"/>
      <point x="376" y="543" type="line" smooth="yes"/>
      <point x="174.822" y="591.282"/>
      <point x="112" y="709.996"/>
      <point x="112" y="824" type="curve" smooth="yes"/>
      <point x="112" y="966"/>
      <point x="243" y="1116"/>
      <point x="488" y="1116" type="curve" smooth="yes"/>
      <point x="612" y="1116"/>
      <point x="719" y="1090"/>
      <point x="813" y="1048" type="curve" smooth="no"/>
      <point x="785" y="952" type="line" smooth="no"/>
      <point x="700" y="984"/>
      <point x="590" y="1016"/>
      <point x="485" y="1016" type="curve" smooth="yes"/>
      <point x="330" y="1016"/>
      <point x="236" y="939"/>
      <point x="236" y="822" type="curve" smooth="yes"/>
      <point x="236" y="726"/>
      <point x="274.551" y="672.457"/>
      <point x="452" y="629" type="curve" smooth="yes"/>
      <point x="550" y="605" type="line" smooth="yes"/>
      <point x="787.799" y="546.764"/>
      <point x="855" y="441"/>
      <point x="855" y="277" type="curve" smooth="yes"/>
      <point x="855" y="81.959"/>
      <point x="696" y="-24"/>
    </contour>
  </outline>
</glyph>
<glyph name="degree" format="1">
  <advance width="844"/>
  <unicode hex="00b0"/>
  <outline>
    <contour>
      <point x="422" y="1011" type="curve" smooth="yes"/>
      <point x="524" y="1011"/>
      <point x="627" y="1084"/>
      <point x="627" y="1231" type="curve" smooth="yes"/>
      <point x="627" y="1379"/>
      <point x="524" y="1454"/>
      <point x="422" y="1454" type="curve" smooth="yes"/>
      <point x="320" y="1454"/>
      <point x="219" y="1380"/>
      <point x="219" y="1231" type="curve" smooth="yes"/>
      <point x="219" y="1084"/>
      <point x="320" y="1011"/>
    </contour>
    <contour>
      <point x="418" y="932" type="curve" smooth="yes"/>
      <point x="264" y="932"/>
      <point x="112" y="1030"/>
      <point x="112" y="1231" type="curve" smooth="yes"/>
      <point x="112" y="1432"/>
      <point x="268" y="1533"/>
      <point x="423" y="1533" type="curve" smooth="yes"/>
      <point x="578" y="1533"/>
      <point x="732" y="1433"/>
      <point x="732" y="1231" type="curve" smooth="yes"/>
      <point x="732" y="1034"/>
      <point x="574" y="932"/>
    </contour>
  </outline>
</glyph>
<glyph name="uni00B2" format="1">
  <advance width="726"/>
  <unicode hex="00b2"/>
  <outline>
    <contour>
      <point x="81" y="568" type="line" smooth="no"/>
      <point x="81" y="645" type="line" smooth="no"/>
      <point x="437" y="1026"/>
      <point x="538" y="1142"/>
      <point x="538" y="1247" type="curve" smooth="yes"/>
      <point x="538" y="1345"/>
      <point x="458" y="1400"/>
      <point x="381" y="1400" type="curve" smooth="yes"/>
      <point x="311" y="1400"/>
      <point x="244" y="1375"/>
      <point x="180" y="1272" type="curve" smooth="no"/>
      <point x="98" y="1303" type="line" smooth="no"/>
      <point x="149" y="1425"/>
      <point x="262" y="1488"/>
      <point x="378" y="1488" type="curve" smooth="yes"/>
      <point x="515" y="1488"/>
      <point x="641" y="1400"/>
      <point x="641" y="1239" type="curve" smooth="yes"/>
      <point x="641" y="1060"/>
      <point x="460" y="915"/>
      <point x="210" y="650" type="curve" smooth="no"/>
      <point x="624" y="650" type="line" smooth="no"/>
      <point x="632" y="568" type="line" smooth="no"/>
    </contour>
  </outline>
</glyph>
<glyph name="uni00B9" format="1">
  <advance width="464"/>
  <unicode hex="00b9"/>
  <outline>
    <contour>
      <point x="90" y="681" type="line" smooth="no"/>
      <point x="90" y="747" type="line" smooth="no"/>
      <point x="194" y="747" type="line" smooth="no"/>
      <point x="194" y="1390" type="line" smooth="no"/>
      <point x="159" y="1364"/>
      <point x="139" y="1353"/>
      <point x="80" y="1318" type="curve" smooth="no"/>
      <point x="80" y="1399" type="line" smooth="no"/>
      <point x="99" y="1410"/>
      <point x="172" y="1451"/>
      <point x="202" y="1488" type="curve" smooth="no"/>
      <point x="287" y="1488" type="line" smooth="no"/>
      <point x="287" y="747" type="line" smooth="no"/>
      <point x="394" y="747" type="line" smooth="no"/>
      <point x="394" y="681" type="line" smooth="no"/>
    </contour>
  </outline>
</glyph>
<glyph name="Lslash" format="1">
  <advance width="998"/>
  <unicode hex="0141"/>
  <outline>
    <contour>
      <point x="9" y="545" type="line" smooth="no"/>
      <point x="9" y="669" type="line" smooth="no"/>
      <point x="182" y="757" type="line" smooth="no"/>
      <point x="182" y="1488" type="line" smooth="no"/>
      <point x="311" y="1488" type="line" smooth="no"/>
      <point x="311" y="823" type="line" smooth="no"/>
      <point x="653" y="998" type="line" smooth="no"/>
      <point x="653" y="867" type="line" smooth="no"/>
      <point x="311" y="696" type="line" smooth="no"/>
      <point x="311" y="113" type="line" smooth="no"/>
      <point x="980" y="113" type="line" smooth="no"/>
      <point x="974" y="0" type="line" smooth="no"/>
      <point x="182" y="0" type="line" smooth="no"/>
      <point x="182" y="632" type="line" smooth="no"/>
    </contour>
  </outline>
</glyph>
<glyph name="ring" format="1">
  <advance width="621"/>
  <unicode hex="02da"/>
  <outline>
    <contour>
      <point x="314" y="1388" type="curve" smooth="yes"/>
      <point x="361" y="1388"/>
      <point x="407" y="1424"/>
      <point x="407" y="1495" type="curve" smooth="yes"/>
      <point x="406" y="1566"/>
      <point x="360" y="1602"/>
      <point x="313" y="1602" type="curve" smooth="yes"/>
      <point x="266" y="1602"/>
      <point x="220" y="1566"/>
      <point x="220" y="1494" type="curve" smooth="yes"/>
      <point x="220" y="1424"/>
      <point x="267" y="1388"/>
    </contour>
    <contour>
      <point x="315" y="1317" type="curve" smooth="yes"/>
      <point x="222" y="1317"/>
      <point x="129" y="1378"/>
      <point x="129" y="1495" type="curve" smooth="yes"/>
      <point x="129" y="1615"/>
      <point x="220" y="1673"/>
      <point x="312" y="1673" type="curve" smooth="yes"/>
      <point x="404" y="1673"/>
      <point x="495" y="1612"/>
      <point x="495" y="1495" type="curve" smooth="yes"/>
      <point x="495" y="1375"/>
      <point x="405" y="1317"/>
    </contour>
  </outline>
</glyph>
<glyph name="uni0311" format="1">
  <advance width="792"/>
  <unicode hex="0311"/>
  <outline>
    <contour>
      <point x="167" y="1345" type="line" smooth="no"/>
      <point x="167" y="1500"/>
      <point x="282" y="1577"/>
      <point x="398" y="1577" type="curve" smooth="yes"/>
      <point x="515" y="1577"/>
      <point x="632" y="1499"/>
      <point x="632" y="1345" type="curve" smooth="no"/>
      <point x="538" y="1345" type="line" smooth="no"/>
      <point x="538" y="1441"/>
      <point x="468" y="1490"/>
      <point x="398" y="1490" type="curve" smooth="yes"/>
      <point x="328" y="1490"/>
      <point x="259" y="1442"/>
      <point x="259" y="1345" type="curve" smooth="no"/>
    </contour>
  </outline>
</glyph>
<glyph name="dagger" format="1">
  <advance width="861"/>
  <unicode hex="2020"/>
  <outline>
    <contour>
      <point x="378" y="1" type="line" smooth="no"/>
      <point x="378" y="968" type="line" smooth="no"/>
      <point x="89" y="968" type="line" smooth="no"/>
      <point x="89" y="1047" type="line" smooth="no"/>
      <point x="378" y="1047" type="line" smooth="no"/>
      <point x="378" y="1488" type="line" smooth="no"/>
      <point x="477" y="1488" type="line" smooth="no"/>
      <point x="477" y="1047" type="line" smooth="no"/>
      <point x="772" y="1047" type="line" smooth="no"/>
      <point x="772" y="968" type="line" smooth="no"/>
      <point x="482" y="968" type="line" smooth="no"/>
      <point x="482" y="1" type="line" smooth="no"/>
    </contour>
  </outline>
</glyph>
<glyph name="daggerdbl" format="1">
  <advance width="879"/>
  <unicode hex="2021"/>
  <outline>
    <contour>
      <point x="491" y="474" type="line" smooth="no"/>
      <point x="491" y="1" type="line" smooth="no"/>
      <point x="387" y="1" type="line" smooth="no"/>
      <point x="387" y="474" type="line" smooth="no"/>
      <point x="98" y="474" type="line" smooth="no"/>
      <point x="98" y="553" type="line" smooth="no"/>
      <point x="387" y="553" type="line" smooth="no"/>
      <point x="387" y="968" type="line" smooth="no"/>
      <point x="98" y="968" type="line" smooth="no"/>
      <point x="98" y="1047" type="line" smooth="no"/>
      <point x="387" y="1047" type="line" smooth="no"/>
      <point x="387" y="1488" type="line" smooth="no"/>
      <point x="486" y="1488" type="line" smooth="no"/>
      <point x="486" y="1047" type="line" smooth="no"/>
      <point x="781" y="1047" type="line" smooth="no"/>
      <point x="781" y="968" type="line" smooth="no"/>
      <point x="491" y="968" type="line" smooth="no"/>
      <point x="491" y="553" type="line" smooth="no"/>
      <point x="781" y="553" type="line" smooth="no"/>
      <point x="781" y="474" type="line" smooth="no"/>
    </contour>
  </outline>
</glyph>
<glyph name="Euro" format="1">
  <advance width="1286"/>
  <unicode hex="20ac"/>
  <outline>
    <contour>
      <point x="-1" y="829" type="line" smooth="no"/>
      <point x="-1" y="936" type="line" smooth="no"/>
      <point x="135" y="936" type="line" smooth="no"/>
      <point x="198" y="1278"/>
      <point x="440" y="1514"/>
      <point x="826" y="1514" type="curve" smooth="yes"/>
      <point x="1011" y="1514"/>
      <point x="1141" y="1471"/>
      <point x="1240" y="1412" type="curve" smooth="no"/>
      <point x="1179" y="1313" type="line" smooth="no"/>
      <point x="1081" y="1372"/>
      <point x="955" y="1407"/>
      <point x="827" y="1407" type="curve" smooth="yes"/>
      <point x="521" y="1407"/>
      <point x="336" y="1210"/>
      <point x="279" y="936" type="curve" smooth="no"/>
      <point x="941" y="936" type="line" smooth="no"/>
      <point x="941" y="829" type="line" smooth="no"/>
      <point x="264" y="829" type="line" smooth="no"/>
      <point x="262" y="801"/>
      <point x="260" y="772"/>
      <point x="260" y="742" type="curve" smooth="yes"/>
      <point x="260" y="709"/>
      <point x="261" y="678"/>
      <point x="264" y="646" type="curve" smooth="no"/>
      <point x="940" y="646" type="line" smooth="no"/>
      <point x="940" y="538" type="line" smooth="no"/>
      <point x="281" y="538" type="line" smooth="no"/>
      <point x="337" y="278"/>
      <point x="510" y="84"/>
      <point x="832" y="84" type="curve" smooth="yes"/>
      <point x="961" y="84"/>
      <point x="1080" y="125"/>
      <point x="1182" y="171" type="curve" smooth="no"/>
      <point x="1208" y="68" type="line" smooth="no"/>
      <point x="1120" y="13"/>
      <point x="992" y="-23"/>
      <point x="813" y="-23" type="curve" smooth="yes"/>
      <point x="423" y="-23"/>
      <point x="200" y="206"/>
      <point x="137" y="538" type="curve" smooth="no"/>
      <point x="0" y="538" type="line" smooth="no"/>
      <point x="0" y="646" type="line" smooth="no"/>
      <point x="122" y="646" type="line" smooth="no"/>
      <point x="119" y="680"/>
      <point x="118" y="714"/>
      <point x="118" y="749" type="curve" smooth="yes"/>
      <point x="118" y="776"/>
      <point x="119" y="803"/>
      <point x="121" y="829" type="curve" smooth="no"/>
    </contour>
  </outline>
</glyph>
<glyph name="product" format="1">
  <advance width="1240"/>
  <unicode hex="220f"/>
  <outline>
    <contour>
      <point x="105" y="0" type="line" smooth="no"/>
      <point x="105" y="1488" type="line" smooth="no"/>
      <point x="1135" y="1488" type="line" smooth="no"/>
      <point x="1135" y="0" type="line" smooth="no"/>
      <point x="1007" y="0" type="line" smooth="no"/>
      <point x="1007" y="1376" type="line" smooth="no"/>
      <point x="233" y="1376" type="line" smooth="no"/>
      <point x="233" y="0" type="line" smooth="no"/>
    </contour>
  </outline>
</glyph>
<glyph name="infinity" format="1">
  <advance width="1811"/>
  <unicode hex="221e"/>
  <outline>
    <contour>
      <point x="1678" y="642" type="curve" smooth="yes"/>
      <point x="1678" y="396"/>
      <point x="1522" y="259"/>
      <point x="1323" y="259" type="curve" smooth="yes"/>
      <point x="1171" y="259"/>
      <point x="1045" y="354"/>
      <point x="909" y="535" type="curve" smooth="no"/>
      <point x="789" y="377"/>
      <point x="660" y="259"/>
      <point x="493" y="259" type="curve" smooth="yes"/>
      <point x="266" y="259"/>
      <point x="135" y="440"/>
      <point x="135" y="659" type="curve" smooth="yes"/>
      <point x="135" y="858"/>
      <point x="291" y="1017"/>
      <point x="488" y="1017" type="curve" smooth="yes"/>
      <point x="659" y="1017"/>
      <point x="786" y="899"/>
      <point x="909" y="735" type="curve" smooth="no"/>
      <point x="1024" y="893"/>
      <point x="1151" y="1017"/>
      <point x="1326" y="1017" type="curve" smooth="yes"/>
      <point x="1554" y="1017"/>
      <point x="1678" y="860"/>
    </contour>
    <contour>
      <point x="495" y="361" type="curve" smooth="yes"/>
      <point x="628" y="361"/>
      <point x="754" y="497"/>
      <point x="848" y="636" type="curve" smooth="no"/>
      <point x="755" y="783"/>
      <point x="631" y="913"/>
      <point x="487" y="913" type="curve" smooth="yes"/>
      <point x="326" y="913"/>
      <point x="247" y="779"/>
      <point x="247" y="643" type="curve" smooth="yes"/>
      <point x="247" y="503"/>
      <point x="331" y="361"/>
    </contour>
    <contour>
      <point x="1321" y="913" type="curve" smooth="yes"/>
      <point x="1182" y="913"/>
      <point x="1061" y="770"/>
      <point x="972" y="638" type="curve" smooth="no"/>
      <point x="1095" y="470"/>
      <point x="1199" y="361"/>
      <point x="1326" y="361" type="curve" smooth="yes"/>
      <point x="1486" y="361"/>
      <point x="1569" y="501"/>
      <point x="1569" y="640" type="curve" smooth="yes"/>
      <point x="1569" y="777"/>
      <point x="1488" y="913"/>
    </contour>
  </outline>
</glyph>
<glyph name="integral" format="1">
  <advance width="943"/>
  <unicode hex="222b"/>
  <outline>
    <contour>
      <point x="101" y="-359" type="curve" smooth="yes"/>
      <point x="79" y="-359"/>
      <point x="35" y="-349"/>
      <point x="11" y="-335" type="curve" smooth="no"/>
      <point x="34" y="-247" type="line" smooth="no"/>
      <point x="34" y="-247"/>
      <point x="63" y="-260"/>
      <point x="96" y="-260" type="curve" smooth="yes"/>
      <point x="182" y="-260"/>
      <point x="228" y="-142"/>
      <point x="250" y="-11" type="curve" smooth="yes"/>
      <point x="460" y="1231" type="line" smooth="yes"/>
      <point x="491" y="1414"/>
      <point x="544" y="1588"/>
      <point x="752" y="1588" type="curve" smooth="yes"/>
      <point x="786" y="1588"/>
      <point x="807" y="1586"/>
      <point x="865" y="1568" type="curve" smooth="no"/>
      <point x="858" y="1471" type="line" smooth="no"/>
      <point x="822" y="1485"/>
      <point x="791" y="1491"/>
      <point x="764" y="1491" type="curve" smooth="yes"/>
      <point x="665" y="1491"/>
      <point x="611" y="1401"/>
      <point x="593" y="1287" type="curve" smooth="yes"/>
      <point x="393" y="84" type="line" smooth="yes"/>
      <point x="347" y="-194"/>
      <point x="308" y="-359"/>
    </contour>
  </outline>
</glyph>
<glyph name="uniFB02" format="1">
  <advance width="1219"/>
  <unicode hex="fb02"/>
  <outline>
    <contour>
      <point x="1061" y="-23" type="curve" smooth="yes"/>
      <point x="879" y="-23"/>
      <point x="795" y="53"/>
      <point x="795" y="243" type="curve" smooth="yes"/>
      <point x="795" y="1439" type="line" smooth="no"/>
      <point x="749" y="1444"/>
      <point x="581" y="1463"/>
      <point x="537" y="1463" type="curve" smooth="yes"/>
      <point x="382" y="1463"/>
      <point x="340" y="1372"/>
      <point x="340" y="1131" type="curve" smooth="yes"/>
      <point x="340" y="1096" type="line" smooth="no"/>
      <point x="607" y="1096" type="line" smooth="no"/>
      <point x="607" y="1005" type="line" smooth="no"/>
      <point x="340" y="1005" type="line" smooth="no"/>
      <point x="340" y="0" type="line" smooth="no"/>
      <point x="216" y="0" type="line" smooth="no"/>
      <point x="216" y="1005" type="line" smooth="no"/>
      <point x="36" y="1005" type="line" smooth="no"/>
      <point x="44" y="1082" type="line" smooth="no"/>
      <point x="216" y="1096" type="line" smooth="no"/>
      <point x="216" y="1137" type="line" smooth="yes"/>
      <point x="216" y="1428"/>
      <point x="318" y="1549"/>
      <point x="523" y="1549" type="curve" smooth="yes"/>
      <point x="634" y="1549"/>
      <point x="812" y="1520"/>
      <point x="917" y="1505" type="curve" smooth="no"/>
      <point x="917" y="250" type="line" smooth="yes"/>
      <point x="917" y="109"/>
      <point x="973" y="74"/>
      <point x="1064" y="74" type="curve" smooth="yes"/>
      <point x="1125" y="74"/>
      <point x="1171" y="86"/>
      <point x="1214" y="97" type="curve" smooth="no"/>
      <point x="1219" y="1" type="line" smooth="no"/>
      <point x="1178" y="-9"/>
      <point x="1100" y="-23"/>
    </contour>
  </outline>
</glyph>
<glyph name="foundryicon" format="1">
  <advance width="1351"/>
  <outline>
    <contour>
      <point x="675" y="1338" type="line" smooth="no"/>
      <point x="820" y="893" type="line" smooth="no"/>
      <point x="1288" y="893" type="line" smooth="no"/>
      <point x="909" y="618" type="line" smooth="no"/>
      <point x="1054" y="173" type="line" smooth="no"/>
      <point x="675" y="448" type="line" smooth="no"/>
      <point x="297" y="173" type="line" smooth="no"/>
      <point x="442" y="618" type="line" smooth="no"/>
      <point x="63" y="893" type="line" smooth="no"/>
      <point x="531" y="893" type="line" smooth="no"/>
    </contour>
  </outline>
</glyph>
